<?xml version="1.0" encoding="UTF-8"?><svg id="DSA_Logo" xmlns="http://www.w3.org/2000/svg" xmlns:xlink="http://www.w3.org/1999/xlink" viewBox="0 0 2173 671.41"><defs><style>.cls-1{fill:url(#Unbenannter_Verlauf_135-2);}.cls-2{fill:url(#Unbenannter_Verlauf_135-3);}.cls-3{fill:url(#Unbenannter_Verlauf_135);}</style><linearGradient id="Unbenannter_Verlauf_135" x1="1274.01" y1="144.64" x2="1274.01" y2="532.45" gradientUnits="userSpaceOnUse"><stop offset="0" stop-color="#000"/><stop offset=".06" stop-color="#040001"/><stop offset=".13" stop-color="#100305"/><stop offset=".19" stop-color="#25080c"/><stop offset=".26" stop-color="#420e15"/><stop offset=".33" stop-color="#671622"/><stop offset=".39" stop-color="#952031"/><stop offset=".46" stop-color="#cb2b42"/><stop offset=".5" stop-color="#ee334e"/><stop offset=".55" stop-color="#f04948"/><stop offset=".64" stop-color="#f46e40"/><stop offset=".73" stop-color="#f78b39"/><stop offset=".82" stop-color="#faa034"/><stop offset=".91" stop-color="#fbac31"/><stop offset="1" stop-color="#fcb131"/></linearGradient><linearGradient id="Unbenannter_Verlauf_135-2" x1="1097.38" y1="144.64" x2="1097.38" y2="532.45" xlink:href="#Unbenannter_Verlauf_135"/><linearGradient id="Unbenannter_Verlauf_135-3" x1="1015.38" y1="144.64" x2="1015.38" y2="532.45" xlink:href="#Unbenannter_Verlauf_135"/></defs><path d="M1438.4,381.94l-1.24-13.51h-28.13l-6.69,13.76c-1.07,2.15-2,3.49-2.79,4.03-.79.54-2.21.81-4.28.81h-11.9c-1.9,0-2.85-.82-2.85-2.48,0-.41.21-1.12.62-2.11l43.38-80.56c.66-1.32,1.38-2.17,2.17-2.54.78-.37,2-.56,3.66-.56h14.5c1.65,0,2.79.29,3.41.87.62.58,1.01,1.65,1.18,3.22l8.68,77.58c.08.41.12,1.11.12,2.11,0,1.57-.31,2.71-.93,3.41-.62.7-1.67,1.05-3.16,1.05h-10.91c-1.74,0-2.93-.33-3.59-.99-.66-.66-1.07-2.02-1.24-4.09ZM1432.58,320.22l-15.74,32.35h18.84l-3.1-32.35Z"/><path d="M1468.19,380.7l16.36-77.21c.41-1.9,1.03-3.16,1.86-3.78.83-.62,2.31-.93,4.46-.93h22.56c8.18,0,14.69,1.78,19.52,5.33,4.83,3.55,7.25,8.39,7.25,14.5,0,.74-.06,1.53-.19,2.36-.12.83-.27,1.73-.43,2.73l-.37,1.73c-.74,3.47-2.29,6.63-4.65,9.48s-5.14,4.9-8.37,6.13c3.06,1.32,5.45,3.39,7.19,6.2s2.6,5.91,2.6,9.29c0,.91-.17,2.36-.5,4.34l-.5,2.36c-1.57,7.68-5.14,13.57-10.72,17.66-5.58,4.09-12.75,6.13-21.5,6.13h-31.11c-2.65,0-3.97-1.07-3.97-3.22,0-.33.06-.78.19-1.36.12-.58.23-1.16.31-1.74ZM1494.34,349.84l-4.21,20.2h11.03c8.1,0,12.68-3.05,13.76-9.17l.25-1.49c.08-.49.12-1.11.12-1.86,0-5.12-3.55-7.68-10.66-7.68h-10.29ZM1501.65,315.76l-3.97,18.34h9.79c7.35,0,11.53-2.77,12.52-8.3l.25-1.36c.08-.5.12-1.11.12-1.86,0-4.54-3.22-6.82-9.67-6.82h-9.05Z"/><path d="M1616.91,306.1l-1.49,7.31c-.17.83-.37,1.45-.62,1.86-.25.42-.74,1.03-1.49,1.86l-45.73,51.56h32.59c2.48,0,3.72,1.07,3.72,3.22,0,.83-.04,1.36-.12,1.61l-1.61,7.81c-.42,2.31-.99,3.84-1.74,4.58-.74.74-2.07,1.12-3.96,1.12h-53.91c-2.23,0-3.35-1.24-3.35-3.72,0-.25.02-.52.06-.81.04-.29.1-.64.19-1.05l1.98-9.54c.08-.83.74-1.9,1.98-3.22l45.23-51.56h-29.12c-2.48,0-3.72-1.32-3.72-3.96,0-.17.02-.33.06-.5.04-.16.1-.54.19-1.11l1.49-7.06c.5-2.4,1.12-3.94,1.86-4.65.74-.7,2.02-1.05,3.84-1.05h50.94c2.15,0,3.22,1.28,3.22,3.84,0,.33-.04.85-.12,1.55-.08.7-.21,1.34-.37,1.92Z"/><path d="M1638.17,298.78h44.62c2.73,0,4.09,1.07,4.09,3.22,0,.33-.02.66-.06.99-.04.33-.1.7-.19,1.11l-1.49,7.06c-.41,2.23-.99,3.7-1.73,4.4s-2.07,1.05-3.97,1.05h-30.36l-3.47,16.36h26.89c2.73,0,4.09,1.07,4.09,3.22,0,.33-.02.66-.06.99-.04.33-.1.7-.19,1.11l-1.36,6.57c-.42,2.23-.99,3.7-1.74,4.4-.74.7-2.07,1.05-3.96,1.05h-27.27l-4.09,18.84h31.35c2.73,0,4.09,1.08,4.09,3.22,0,.33-.02.66-.06.99-.04.33-.1.7-.19,1.11l-1.49,7.06c-.41,2.23-.99,3.7-1.73,4.4-.74.7-2.07,1.05-3.97,1.05h-46.97c-2.65,0-3.97-1.07-3.97-3.22,0-.25.06-.66.19-1.24.12-.58.23-1.2.31-1.86l16.36-77.21c.41-1.9,1.03-3.16,1.86-3.78.83-.62,2.31-.93,4.46-.93Z"/><path d="M1686.93,380.7l16.36-77.21c.41-1.9,1.03-3.16,1.86-3.78.83-.62,2.31-.93,4.46-.93h10.16c2.64,0,3.96,1.07,3.96,3.22,0,.33-.04.79-.12,1.36-.08.58-.21,1.16-.37,1.73l-16.36,77.21c-.42,1.98-1.04,3.26-1.86,3.84-.83.58-2.32.87-4.46.87h-10.16c-2.65,0-3.97-1.07-3.97-3.22,0-.33.06-.78.19-1.36.12-.58.23-1.16.31-1.74Z"/><path d="M1772.44,359.63c.66-1.74,1.32-2.85,1.98-3.35.66-.49,1.98-.74,3.97-.74h10.16c3.05,0,4.58,1.07,4.58,3.22,0,.08-.02.31-.06.68-.04.37-.1.81-.19,1.3l-.12.62c-1.57,8.51-5.51,15.24-11.84,20.2-6.32,4.96-14.15,7.44-23.48,7.44s-16.63-2.46-21.87-7.37c-5.25-4.92-7.87-11.79-7.87-20.64,0-1.73.12-3.51.37-5.33.25-1.82.54-3.63.87-5.45l3.97-18.34c5.12-23.38,17.8-35.07,38.05-35.07,8.84,0,15.8,2.06,20.88,6.2,5.08,4.13,7.62,9.75,7.62,16.85,0,.58-.02,1.14-.06,1.67-.04.54-.15,1.39-.31,2.54-.33,2.48-.81,4.07-1.43,4.77-.62.7-1.84,1.05-3.66,1.05h-10.9c-3.06,0-4.59-1.24-4.59-3.72,0-.41.02-.95.06-1.61.04-.66.06-1.16.06-1.49,0-5.95-3.06-8.92-9.17-8.92-8.01,0-13.3,5.91-15.86,17.72l-4.21,19.21c-.74,3.47-1.12,6.49-1.12,9.05,0,7.68,3.51,11.52,10.53,11.52,3.39,0,6.13-.93,8.24-2.79,2.11-1.86,3.9-4.94,5.39-9.23Z"/><path d="M1885.2,305.1l-16.36,77.21c-.41,1.9-1.03,3.16-1.86,3.78-.83.62-2.31.93-4.46.93h-10.16c-2.64,0-3.96-1.07-3.96-3.22,0-.33.06-.78.19-1.36.12-.58.23-1.16.31-1.74l6.45-30.61h-26.03l-6.82,32.22c-.42,1.98-1.04,3.26-1.86,3.84-.83.58-2.32.87-4.46.87h-10.16c-2.65,0-3.97-1.07-3.97-3.22,0-.33.06-.78.19-1.36.12-.58.23-1.16.31-1.74l16.36-77.21c.41-1.9,1.03-3.16,1.86-3.78.83-.62,2.31-.93,4.46-.93h10.16c2.64,0,3.96,1.07,3.96,3.22,0,.33-.04.79-.12,1.36-.08.58-.21,1.16-.37,1.73l-5.83,27.39h26.03l6.2-29c.41-1.9,1.03-3.16,1.86-3.78.82-.62,2.31-.93,4.46-.93h10.16c2.64,0,3.97,1.07,3.97,3.22,0,.33-.04.79-.12,1.36-.08.58-.21,1.16-.37,1.73Z"/><path d="M1910.42,298.78h44.62c2.73,0,4.09,1.07,4.09,3.22,0,.33-.02.66-.06.99-.04.33-.1.7-.19,1.11l-1.49,7.06c-.41,2.23-.99,3.7-1.73,4.4s-2.07,1.05-3.97,1.05h-30.36l-3.47,16.36h26.89c2.73,0,4.09,1.07,4.09,3.22,0,.33-.02.66-.06.99-.04.33-.1.7-.19,1.11l-1.36,6.57c-.42,2.23-.99,3.7-1.74,4.4-.74.7-2.07,1.05-3.96,1.05h-27.27l-4.09,18.84h31.35c2.73,0,4.09,1.08,4.09,3.22,0,.33-.02.66-.06.99-.04.33-.1.7-.19,1.11l-1.49,7.06c-.41,2.23-.99,3.7-1.73,4.4-.74.7-2.07,1.05-3.97,1.05h-46.97c-2.65,0-3.97-1.07-3.97-3.22,0-.25.06-.66.19-1.24.12-.58.23-1.2.31-1.86l16.36-77.21c.41-1.9,1.03-3.16,1.86-3.78.83-.62,2.31-.93,4.46-.93Z"/><path d="M2038.51,305.1l-16.36,77.21c-.42,1.98-1.04,3.26-1.86,3.84-.83.58-2.32.87-4.46.87h-8.06c-2.23,0-3.72-.27-4.46-.81-.74-.54-1.41-1.8-1.98-3.78l-13.51-46.6-9.79,46.47c-.33,1.82-.91,3.06-1.73,3.72-.83.66-2.27.99-4.34.99h-9.29c-2.65,0-3.97-1.07-3.97-3.22,0-.33.06-.78.19-1.36.12-.58.23-1.16.31-1.74l16.36-77.21c.41-1.9,1.03-3.16,1.86-3.78.83-.62,2.31-.93,4.46-.93h8.06c2.23,0,3.72.27,4.46.81.74.54,1.41,1.8,1.98,3.78l13.51,46.6,9.79-46.47c.41-1.9,1.03-3.16,1.86-3.78.82-.62,2.31-.93,4.46-.93h9.05c2.64,0,3.96,1.07,3.96,3.22,0,.33-.04.79-.12,1.36-.08.58-.21,1.16-.37,1.73Z"/><path class="cls-3" d="M1330.52,350.39h-95.17c-4.32,16.61-12.93,28.78-25.85,36.5h35.02l-29.25,135.75c-.17,1.17-.38,2.34-.62,3.5-.25,1.17-.38,2.09-.38,2.75,0,4.34,2.66,6.5,8,6.5h20.5c4.33,0,7.33-.58,9-1.75,1.66-1.16,2.91-3.75,3.75-7.75l30-139h36.25c4.33,0,7.33-.58,9-1.75,1.66-1.16,2.91-3.75,3.75-7.75l3-14.25c.33-1.16.58-2.33.75-3.5.16-1.16.25-2.08.25-2.75,0-4.33-2.67-6.5-8-6.5Z"/><path class="cls-1" d="M1185,380.59c19.5-7.83,31.41-23.5,35.75-47l.75-4c.33-2.5.62-4.83.88-7,.25-2.16.38-4.08.38-5.75,0-14.83-4.88-26.33-14.62-34.5-9.75-8.16-23.38-12.25-40.88-12.25h-47c-4.34,0-7.34.62-9,1.88-1.67,1.25-2.92,3.79-3.75,7.62l-15.21,71.8h-33.29c-40.84,0-66.34,23.67-76.5,71l-8.25,38c-1.5,7.17-2.25,14-2.25,20.5,0,17.67,5.41,31.5,16.25,41.5,10.83,10,25.83,15,45,15,40.83,0,66.33-23.66,76.5-71l8.25-38c1.5-7.33,2.25-12.04,2.25-18.37,0-4.44-3.16-6.66-9.48-6.66h-10.76c-.13,0-.25,0-.38,0-.13,0-.25,0-.38,0h-8.24s-8,.04-10.3,3.04c-2.19,2.86-1.99,6-2.06,7.18-.2,3.09-.66,6.45-1.39,10.07l-9,42.75c-5,24-16,36-33,36-14.5,0-21.75-7.91-21.75-23.75,0-4,.5-8.5,1.5-13.5l9-42.75c5-24,16-36,33-36h69s-15,0-15,0l33.75-.05,16.25,52.25c1.33,4,2.71,6.59,4.12,7.75,1.41,1.17,3.96,1.75,7.62,1.75h23.25c6.33,0,9.5-2.25,9.5-6.75,0-1-.17-1.91-.5-2.75l-20-58ZM1181.5,324.59c0,.84-.17,1.92-.5,3.25l-.5,2.75c-2.67,14.34-11.84,21.5-27.5,21.5h-20.5l10-47.25h19c13.33,0,20,5.59,20,16.75v3Z"/><path class="cls-2" d="M983.13,379.39c5.58-8.5,8.38-18.5,8.38-30,0-10.66-2.84-19.88-8.5-27.63-5.67-7.75-14.92-15.04-27.75-21.88l-14-7.5c-5.84-3.16-9.79-6.08-11.88-8.75-2.09-2.66-3.12-6.08-3.12-10.25,0-6.33,1.91-11.16,5.75-14.5,3.83-3.33,9.33-5,16.5-5h84.19l-13.94,65.75c-.17,1.17-.38,2.34-.62,3.5-.25,1.17-.38,2.09-.38,2.75,0,4.34,2.66,6.5,8,6.5h20.5c4.33,0,7.38-.62,9.12-1.88s2.96-3.79,3.62-7.62l14.25-68.5h23.25c19.33,0,34.88-4.66,46.62-14,11.75-9.33,19.21-22.75,22.38-40.25l.75-4.25c.33-2.5.62-4.83.88-7,.25-2.16.38-4.16.38-6,0-15.33-5.04-27.25-15.12-35.75-10.09-8.5-24.12-12.75-42.12-12.75h-41.75c-4.34,0-7.34.62-9,1.88-1.67,1.25-2.92,3.79-3.75,7.62l-16.04,76.5h-88.21c-13.5,0-25.29,2.37-35.38,7.12-10.09,4.75-17.92,11.38-23.5,19.88-5.59,8.5-8.38,18.5-8.38,30,0,10.17,2.66,19.04,8,26.62,5.33,7.59,13.83,14.38,25.5,20.38l13,6.75c7,3.67,11.83,7,14.5,10,2.66,3,4,6.67,4,11,0,6.67-2.09,11.79-6.25,15.38-4.17,3.59-10.09,5.38-17.75,5.38-11.67,0-18.59-5.16-20.75-15.5-.67-3.66-1.75-6.08-3.25-7.25-1.5-1.16-4.17-1.75-8-1.75h-16.5c-5.34,0-8.92.79-10.75,2.38-1.84,1.59-2.75,4.79-2.75,9.62,0,14.17,5.41,25.38,16.25,33.62,10.83,8.25,25.5,12.38,44,12.38,13.83,0,25.83-2.38,36-7.12,10.16-4.75,18.04-11.38,23.62-19.88ZM1091.25,169.14h14.5c14.5,0,21.75,5.59,21.75,16.75,0,2.5-.34,5.09-1,7.75l-.75,3c-2,8-5.34,13.84-10,17.5-4.67,3.67-10.92,5.5-18.75,5.5h-16.5l10.75-50.5Z"/><path d="M135.3,380.7l16.36-77.21c.41-1.9,1.03-3.16,1.86-3.78.83-.62,2.31-.93,4.46-.93h23.42c9.09,0,16.28,2.56,21.56,7.68,5.29,5.12,7.93,12.02,7.93,20.7,0,3.06-.37,6.32-1.12,9.79l-3.22,14.62c-2.48,11.65-6.92,20.47-13.32,26.46-6.4,5.99-14.6,8.98-24.6,8.98h-29.87c-2.65,0-3.97-1.07-3.97-3.22,0-.33.06-.78.19-1.36.12-.58.23-1.16.31-1.74ZM169.26,316.13l-11.4,53.54h9.67c5.29,0,9.34-1.38,12.15-4.15,2.81-2.77,4.91-7.41,6.32-13.94l3.59-17.1c.5-2.4.74-4.5.74-6.32,0-8.01-4.05-12.02-12.15-12.02h-8.92Z"/><path d="M238.21,298.78h44.62c2.73,0,4.09,1.07,4.09,3.22,0,.33-.02.66-.06.99-.04.33-.1.7-.19,1.11l-1.49,7.06c-.41,2.23-.99,3.7-1.74,4.4-.74.7-2.07,1.05-3.97,1.05h-30.36l-3.47,16.36h26.89c2.73,0,4.09,1.07,4.09,3.22,0,.33-.02.66-.06.99-.04.33-.1.7-.19,1.12l-1.36,6.57c-.41,2.23-.99,3.7-1.74,4.4-.74.7-2.07,1.05-3.97,1.05h-27.26l-4.09,18.84h31.35c2.73,0,4.09,1.07,4.09,3.22,0,.33-.02.66-.06.99-.04.33-.1.7-.19,1.12l-1.49,7.06c-.41,2.23-.99,3.7-1.74,4.4-.74.7-2.07,1.05-3.97,1.05h-46.97c-2.65,0-3.97-1.07-3.97-3.22,0-.25.06-.66.19-1.24.12-.58.23-1.2.31-1.86l16.36-77.21c.41-1.9,1.03-3.16,1.86-3.78.83-.62,2.31-.93,4.46-.93Z"/><path d="M352.31,298.78h10.29c2.64,0,3.96,1.07,3.96,3.22,0,.33-.04.79-.12,1.36-.08.58-.21,1.16-.37,1.74l-10.78,51.06c-4.63,21.89-16.77,32.84-36.44,32.84-9.01,0-16.07-2.29-21.19-6.88-5.12-4.59-7.68-11.01-7.68-19.27,0-2.23.29-4.75.87-7.56l11.03-51.8c.41-1.98,1.01-3.26,1.8-3.84.78-.58,2.29-.87,4.52-.87h10.16c2.64,0,3.97,1.07,3.97,3.22,0,.33-.04.79-.12,1.36-.08.58-.21,1.16-.37,1.74l-10.53,49.57c-.58,2.89-.87,5.12-.87,6.69,0,3.06.87,5.43,2.6,7.13,1.74,1.69,4.21,2.54,7.44,2.54,7.6,0,12.47-5.21,14.62-15.62l11.03-51.93c.41-1.98,1.03-3.26,1.86-3.84.83-.58,2.27-.87,4.34-.87Z"/><path d="M442.72,305.1l-1.49,7.06c-.41,1.98-1.03,3.26-1.86,3.84-.83.58-2.31.87-4.46.87h-17.97l-13.88,65.44c-.41,1.98-1.03,3.26-1.86,3.84-.83.58-2.31.87-4.46.87h-10.16c-2.64,0-3.96-1.07-3.96-3.22,0-.33.06-.78.19-1.36.12-.58.23-1.16.31-1.74l13.51-63.82h-18.84c-2.64,0-3.96-1.07-3.96-3.22,0-.33.06-.78.19-1.36.12-.58.23-1.16.31-1.74l1.49-7.06c.41-1.9,1.03-3.16,1.86-3.78.82-.62,2.31-.93,4.46-.93h57.13c2.64,0,3.96,1.07,3.96,3.22,0,.33-.04.79-.12,1.36-.08.58-.21,1.16-.37,1.74Z"/><path d="M443.4,360.25h8.18c1.9,0,3.22.29,3.97.87.74.58,1.28,1.78,1.61,3.59,1.07,5.12,4.5,7.68,10.29,7.68,3.8,0,6.73-.89,8.8-2.67,2.06-1.78,3.1-4.32,3.1-7.62,0-2.15-.66-3.97-1.98-5.45-1.32-1.49-3.72-3.14-7.19-4.96l-6.45-3.35c-5.78-2.98-10-6.34-12.64-10.1-2.64-3.76-3.96-8.16-3.96-13.2,0-5.7,1.38-10.66,4.15-14.87,2.77-4.21,6.65-7.5,11.65-9.85,5-2.35,10.84-3.53,17.54-3.53,8.84,0,15.82,2.04,20.94,6.13,5.12,4.09,7.68,9.65,7.68,16.67,0,2.15-.39,3.59-1.18,4.34-.79.74-2.29,1.12-4.52,1.12h-7.68c-2.23,0-3.76-.29-4.59-.87-.83-.58-1.41-1.78-1.73-3.59-.91-4.79-4.38-7.19-10.41-7.19-3.55,0-6.28.83-8.18,2.48-1.9,1.65-2.85,4.05-2.85,7.19,0,2.07.51,3.76,1.55,5.08,1.03,1.32,2.99,2.77,5.89,4.34l6.94,3.72c6.36,3.39,10.95,7,13.76,10.84,2.81,3.84,4.21,8.41,4.21,13.69,0,5.7-1.38,10.66-4.15,14.87-2.77,4.21-6.67,7.5-11.71,9.85-5.04,2.35-10.99,3.53-17.85,3.53-9.17,0-16.44-2.04-21.81-6.13-5.37-4.09-8.06-9.65-8.06-16.67,0-2.4.45-3.99,1.36-4.77.91-.78,2.68-1.18,5.33-1.18Z"/><path d="M558.17,359.63c.66-1.74,1.32-2.85,1.98-3.35.66-.49,1.98-.74,3.97-.74h10.16c3.05,0,4.58,1.07,4.58,3.22,0,.08-.02.31-.06.68-.04.37-.1.81-.19,1.3l-.12.62c-1.57,8.51-5.51,15.24-11.84,20.2-6.32,4.96-14.15,7.44-23.48,7.44s-16.63-2.46-21.87-7.37c-5.25-4.91-7.87-11.79-7.87-20.63,0-1.74.12-3.51.37-5.33.25-1.82.54-3.63.87-5.45l3.97-18.34c5.12-23.38,17.8-35.07,38.05-35.07,8.84,0,15.8,2.07,20.88,6.2,5.08,4.13,7.62,9.75,7.62,16.85,0,.58-.02,1.14-.06,1.67-.04.54-.15,1.38-.31,2.54-.33,2.48-.81,4.07-1.43,4.77-.62.7-1.84,1.05-3.66,1.05h-10.9c-3.06,0-4.59-1.24-4.59-3.72,0-.41.02-.95.06-1.61.04-.66.06-1.16.06-1.49,0-5.95-3.06-8.92-9.17-8.92-8.01,0-13.3,5.91-15.86,17.72l-4.21,19.21c-.74,3.47-1.12,6.49-1.12,9.05,0,7.68,3.51,11.53,10.53,11.53,3.39,0,6.13-.93,8.24-2.79,2.11-1.86,3.9-4.94,5.39-9.23Z"/><path d="M670.93,305.1l-16.36,77.21c-.41,1.9-1.03,3.16-1.86,3.78-.83.62-2.31.93-4.46.93h-10.16c-2.64,0-3.96-1.07-3.96-3.22,0-.33.06-.78.19-1.36.12-.58.23-1.16.31-1.74l6.45-30.61h-26.03l-6.82,32.22c-.42,1.98-1.04,3.26-1.86,3.84-.83.58-2.32.87-4.46.87h-10.16c-2.65,0-3.97-1.07-3.97-3.22,0-.33.06-.78.19-1.36.12-.58.23-1.16.31-1.74l16.36-77.21c.41-1.9,1.03-3.16,1.86-3.78.83-.62,2.31-.93,4.46-.93h10.16c2.64,0,3.96,1.07,3.96,3.22,0,.33-.04.79-.12,1.36-.08.58-.21,1.16-.37,1.74l-5.83,27.39h26.03l6.2-29c.41-1.9,1.03-3.16,1.86-3.78.82-.62,2.31-.93,4.46-.93h10.16c2.64,0,3.97,1.07,3.97,3.22,0,.33-.04.79-.12,1.36-.08.58-.21,1.16-.37,1.74Z"/><path d="M696.15,298.78h44.62c2.73,0,4.09,1.07,4.09,3.22,0,.33-.02.66-.06.99-.04.33-.1.7-.19,1.11l-1.49,7.06c-.41,2.23-.99,3.7-1.73,4.4-.74.7-2.07,1.05-3.97,1.05h-30.36l-3.47,16.36h26.89c2.73,0,4.09,1.07,4.09,3.22,0,.33-.02.66-.06.99-.04.33-.1.7-.19,1.12l-1.36,6.57c-.42,2.23-.99,3.7-1.74,4.4-.74.7-2.07,1.05-3.96,1.05h-27.27l-4.09,18.84h31.35c2.73,0,4.09,1.07,4.09,3.22,0,.33-.02.66-.06.99-.04.33-.1.7-.19,1.12l-1.49,7.06c-.41,2.23-.99,3.7-1.73,4.4-.74.7-2.07,1.05-3.97,1.05h-46.97c-2.65,0-3.97-1.07-3.97-3.22,0-.25.06-.66.19-1.24.12-.58.23-1.2.31-1.86l16.36-77.21c.41-1.9,1.03-3.16,1.86-3.78.83-.62,2.31-.93,4.46-.93Z"/><path d="M750.12,360.25h8.18c1.9,0,3.22.29,3.97.87.74.58,1.28,1.78,1.61,3.59,1.07,5.12,4.5,7.68,10.29,7.68,3.8,0,6.73-.89,8.8-2.67,2.06-1.78,3.1-4.32,3.1-7.62,0-2.15-.66-3.97-1.98-5.45-1.32-1.49-3.72-3.14-7.19-4.96l-6.45-3.35c-5.78-2.98-10-6.34-12.64-10.1-2.64-3.76-3.96-8.16-3.96-13.2,0-5.7,1.38-10.66,4.15-14.87,2.77-4.21,6.65-7.5,11.65-9.85,5-2.35,10.84-3.53,17.54-3.53,8.84,0,15.82,2.04,20.94,6.13,5.12,4.09,7.68,9.65,7.68,16.67,0,2.15-.39,3.59-1.18,4.34-.79.74-2.29,1.12-4.52,1.12h-7.68c-2.23,0-3.76-.29-4.59-.87-.83-.58-1.41-1.78-1.73-3.59-.91-4.79-4.38-7.19-10.41-7.19-3.55,0-6.28.83-8.18,2.48-1.9,1.65-2.85,4.05-2.85,7.19,0,2.07.51,3.76,1.55,5.08,1.03,1.32,2.99,2.77,5.89,4.34l6.94,3.72c6.36,3.39,10.95,7,13.76,10.84,2.81,3.84,4.21,8.41,4.21,13.69,0,5.7-1.38,10.66-4.15,14.87-2.77,4.21-6.67,7.5-11.71,9.85-5.04,2.35-10.99,3.53-17.85,3.53-9.17,0-16.44-2.04-21.81-6.13-5.37-4.09-8.06-9.65-8.06-16.67,0-2.4.45-3.99,1.36-4.77.91-.78,2.68-1.18,5.33-1.18Z"/></svg>